{
  "accessors": [
    {
      "name": "u03Bldg02.Shape-Mesh_0_positions",
      "componentType": 5126,
      "count": 22648,
      "min": [
        -0.38051360845565796,
        2.5946245193481445,
        -169.42462158203125
      ],
      "max": [
        462.79144287109375,
        1539.8812255859375,
        301.5029296875
      ],
      "type": "VEC3",
      "bufferView": 0,
      "byteOffset": 0
    },
    {
      "name": "u03Bldg02.Shape-Mesh_0_normals",
      "componentType": 5126,
      "count": 22648,
      "min": [
        -1,
        -1,
        -1
      ],
      "max": [
        1,
        1,
        1
      ],
      "type": "VEC3",
      "bufferView": 1,
      "byteOffset": 0
    },
    {
      "name": "u03Bldg02.Shape-Mesh_0_texcoords",
      "componentType": 5126,
      "count": 22648,
      "min": [
        -4.13520622253418,
        -6.068352699279785
      ],
      "max": [
        25.301610946655273,
        4.772456169128418
      ],
      "type": "VEC2",
      "bufferView": 2,
      "byteOffset": 0
    },
    {
      "name": "u03Bldg02.Shape-Mesh_0_indices",
      "componentType": 5123,
      "count": 66405,
      "min": [
        0
      ],
      "max": [
        22647
      ],
      "type": "SCALAR",
      "bufferView": 3,
      "byteOffset": 0
    },
    {
      "name": "u03Bldg03.Shape-Mesh_0_positions",
      "componentType": 5126,
      "count": 6228,
      "min": [
        100.38249969482422,
        -0.6288412809371948,
        -446.537353515625
      ],
      "max": [
        462.97113037109375,
        996.13623046875,
        -129.92880249023438
      ],
      "type": "VEC3",
      "bufferView": 0,
      "byteOffset": 271776
    },
    {
      "name": "u03Bldg03.Shape-Mesh_0_normals",
      "componentType": 5126,
      "count": 6228,
      "min": [
        -1,
        -1,
        -1
      ],
      "max": [
        1,
        1,
        1
      ],
      "type": "VEC3",
      "bufferView": 1,
      "byteOffset": 271776
    },
    {
      "name": "u03Bldg03.Shape-Mesh_0_texcoords",
      "componentType": 5126,
      "count": 6228,
      "min": [
        -11.203980445861816,
        -27.864948272705078
      ],
      "max": [
        11.754599571228027,
        6.093850135803223
      ],
      "type": "VEC2",
      "bufferView": 2,
      "byteOffset": 181184
    },
    {
      "name": "u03Bldg03.Shape-Mesh_0_indices",
      "componentType": 5123,
      "count": 14946,
      "min": [
        0
      ],
      "max": [
        6227
      ],
      "type": "SCALAR",
      "bufferView": 3,
      "byteOffset": 132812
    },
    {
      "name": "us03Bldg06.Shape-Mesh_0_positions",
      "componentType": 5126,
      "count": 4278,
      "min": [
        -477.6637268066406,
        -1.182510256767273,
        -71.6440658569336
      ],
      "max": [
        -90.51873016357422,
        743.3040771484375,
        266.4068603515625
      ],
      "type": "VEC3",
      "bufferView": 0,
      "byteOffset": 346512
    },
    {
      "name": "us03Bldg06.Shape-Mesh_0_normals",
      "componentType": 5126,
      "count": 4278,
      "min": [
        -1,
        -1,
        -1
      ],
      "max": [
        1,
        1,
        1
      ],
      "type": "VEC3",
      "bufferView": 1,
      "byteOffset": 346512
    },
    {
      "name": "us03Bldg06.Shape-Mesh_0_texcoords",
      "componentType": 5126,
      "count": 4278,
      "min": [
        -11.203980445861816,
        -5.635770797729492
      ],
      "max": [
        11.479900360107422,
        4.435286521911621
      ],
      "type": "VEC2",
      "bufferView": 2,
      "byteOffset": 231008
    },
    {
      "name": "us03Bldg06.Shape-Mesh_0_indices",
      "componentType": 5123,
      "count": 10824,
      "min": [
        0
      ],
      "max": [
        4277
      ],
      "type": "SCALAR",
      "bufferView": 3,
      "byteOffset": 162704
    }
  ],
  "asset": {
    "generator": "obj2gltf",
    "version": "2.0"
  },
  "buffers": [
    {
      "name": "building",
      "byteLength": 1245280,
      "uri": "data:application/octet-stream;base64,"
    }
  ],
  "bufferViews": [
    {
      "name": "bufferView_0",
      "buffer": 0,
      "byteLength": 397848,
      "byteOffset": 0,
      "byteStride": 12,
      "target": 34962
    },
    {
      "name": "bufferView_1",
      "buffer": 0,
      "byteLength": 397848,
      "byteOffset": 397848,
      "byteStride": 12,
      "target": 34962
    },
    {
      "name": "bufferView_2",
      "buffer": 0,
      "byteLength": 265232,
      "byteOffset": 795696,
      "byteStride": 8,
      "target": 34962
    },
    {
      "name": "bufferView_3",
      "buffer": 0,
      "byteLength": 184352,
      "byteOffset": 1060928,
      "target": 34963
    }
  ],
  "materials": [
    {
      "name": "default",
      "pbrMetallicRoughness": {
        "baseColorFactor": [
          0.5,
          0.5,
          0.5,
          1
        ],
        "metallicFactor": 0,
        "roughnessFactor": 1
      },
      "emissiveFactor": [
        0,
        0,
        0
      ],
      "alphaMode": "OPAQUE",
      "doubleSided": false
    }
  ],
  "meshes": [
    {
      "name": "u03Bldg02.Shape-Mesh",
      "primitives": [
        {
          "attributes": {
            "POSITION": 0,
            "NORMAL": 1,
            "TEXCOORD_0": 2
          },
          "indices": 3,
          "material": 0,
          "mode": 4
        }
      ]
    },
    {
      "name": "u03Bldg03.Shape-Mesh",
      "primitives": [
        {
          "attributes": {
            "POSITION": 4,
            "NORMAL": 5,
            "TEXCOORD_0": 6
          },
          "indices": 7,
          "material": 0,
          "mode": 4
        }
      ]
    },
    {
      "name": "us03Bldg06.Shape-Mesh",
      "primitives": [
        {
          "attributes": {
            "POSITION": 8,
            "NORMAL": 9,
            "TEXCOORD_0": 10
          },
          "indices": 11,
          "material": 0,
          "mode": 4
        }
      ]
    }
  ],
  "nodes": [
    {
      "name": "u03Bldg02.Shape",
      "mesh": 0
    },
    {
      "name": "u03Bldg03.Shape",
      "mesh": 1
    },
    {
      "name": "us03Bldg06.Shape",
      "mesh": 2
    }
  ],
  "scene": 0,
  "scenes": [
    {
      "nodes": [
        0,
        1,
        2
      ]
    }
  ]
}
